<svg width="136" height="21" viewBox="0 0 136 21" fill="none" xmlns="http://www.w3.org/2000/svg">
<path fill-rule="evenodd" clip-rule="evenodd" d="M15.7649 20.7244C13.7448 20.2183 9.60927 18.7915 5.86016 15.0423C2.11105 11.2932 0.684203 7.15771 0.178075 5.13763C-0.11279 3.97671 0.410977 2.85647 1.29909 2.2221L3.62734 0.559061C4.98962 -0.413994 6.88472 -0.0838051 7.83764 1.29263L9.30343 3.40989C9.92563 4.30863 9.71102 5.54043 8.82152 6.17578L7.65274 7.01062C7.82963 7.68723 8.37979 9.07669 10.1028 10.7997C11.8258 12.5227 13.2153 13.0729 13.8919 13.2498L14.7267 12.081C15.3621 11.1915 16.5939 10.9769 17.4926 11.5991L19.6099 13.0649C20.9863 14.0178 21.3165 15.9129 20.3434 17.2752L18.6804 19.6034C18.046 20.4915 16.9258 21.0153 15.7649 20.7244ZM7.27437 13.6281C10.6838 17.0375 14.4462 18.3322 16.2509 18.7844C16.5147 18.8505 16.8336 18.748 17.0529 18.4409L18.716 16.1127C19.0403 15.6586 18.9303 15.0269 18.4714 14.7092L16.3542 13.2435L15.4583 14.4977C15.0922 15.0103 14.4151 15.4123 13.6267 15.2422C12.6427 15.0299 10.8237 14.349 8.68859 12.2139C6.5535 10.0788 5.87259 8.25983 5.66027 7.27582C5.49017 6.48743 5.89221 5.81033 6.40479 5.44421L7.65905 4.54831L6.19325 2.43105C5.87561 1.97224 5.24391 1.86218 4.78982 2.18653L2.46157 3.84956C2.15453 4.06888 2.05202 4.38778 2.11811 4.65155C2.57029 6.45631 3.86499 10.2187 7.27437 13.6281Z" fill="#151618"/>
<path d="M32.6863 8.50269V15.4026H32.0452V8.50269H32.6863ZM32.3752 5.95093C32.5361 5.95093 32.6545 5.99959 32.7307 6.09692C32.8069 6.19002 32.845 6.31698 32.845 6.47778C32.845 6.63859 32.8069 6.76554 32.7307 6.85864C32.6545 6.95174 32.5361 6.99829 32.3752 6.99829C32.2229 6.99829 32.1086 6.95174 32.0325 6.85864C31.9563 6.76554 31.9182 6.63859 31.9182 6.47778C31.9182 6.31698 31.9563 6.19002 32.0325 6.09692C32.1086 5.99959 32.2229 5.95093 32.3752 5.95093ZM38.031 8.36938C38.8054 8.36938 39.4 8.57251 39.8147 8.97876C40.2294 9.38501 40.4368 10.0219 40.4368 10.8894V15.4026H39.802V10.9275C39.802 10.2419 39.6454 9.73836 39.3323 9.41675C39.0191 9.09513 38.5642 8.93433 37.9675 8.93433C37.21 8.93433 36.6303 9.15649 36.2283 9.60083C35.8305 10.0409 35.6316 10.7074 35.6316 11.6003V15.4026H34.9905V8.50269H35.511L35.6062 9.75952H35.6443C35.767 9.50138 35.9342 9.26864 36.1458 9.06128C36.3616 8.84969 36.6261 8.68254 36.9392 8.55981C37.2524 8.43286 37.6163 8.36938 38.031 8.36938ZM45.2419 9.03589H43.6169V15.4026H42.9758V9.03589H41.6936V8.65503L42.9758 8.48999V7.72827C42.9758 7.22046 43.0478 6.7994 43.1917 6.46509C43.3398 6.12655 43.5619 5.87476 43.8582 5.70972C44.1586 5.54045 44.5374 5.45581 44.9944 5.45581C45.2314 5.45581 45.4451 5.47485 45.6355 5.51294C45.8259 5.54679 46.0037 5.59123 46.1687 5.64624L46.0227 6.18579C45.8746 6.13501 45.7096 6.09269 45.5276 6.05884C45.3499 6.02498 45.1742 6.00806 45.0007 6.00806C44.5141 6.00806 44.1607 6.14347 43.9407 6.41431C43.7249 6.68091 43.6169 7.11678 43.6169 7.72192V8.50269H45.2419V9.03589ZM52.3069 11.9431C52.3069 12.4763 52.2413 12.963 52.1101 13.4031C51.9789 13.8389 51.7843 14.2156 51.5261 14.533C51.268 14.8503 50.9464 15.0958 50.5613 15.2693C50.1804 15.4428 49.7361 15.5295 49.2283 15.5295C48.7458 15.5295 48.3163 15.4449 47.9397 15.2756C47.5631 15.1021 47.2436 14.8567 46.9812 14.5393C46.7231 14.2219 46.5263 13.8453 46.3909 13.4094C46.2555 12.9693 46.1877 12.4806 46.1877 11.9431C46.1877 11.2026 46.3105 10.5657 46.5559 10.0325C46.8056 9.49504 47.1611 9.08455 47.6223 8.80103C48.0878 8.51326 48.6443 8.36938 49.2917 8.36938C49.9604 8.36938 50.5168 8.52173 50.9612 8.82642C51.4097 9.12687 51.7462 9.54582 51.9705 10.0833C52.1947 10.6207 52.3069 11.2406 52.3069 11.9431ZM46.8479 11.9431C46.8479 12.5483 46.9347 13.0772 47.1082 13.53C47.2817 13.9828 47.544 14.3362 47.8953 14.5901C48.2507 14.844 48.6993 14.9709 49.241 14.9709C49.7953 14.9709 50.2502 14.844 50.6057 14.5901C50.9612 14.3362 51.2236 13.9807 51.3928 13.5237C51.5621 13.0667 51.6467 12.5398 51.6467 11.9431C51.6467 11.3634 51.5663 10.8471 51.4055 10.3943C51.2447 9.94149 50.9908 9.58602 50.6438 9.32788C50.2968 9.06551 49.844 8.93433 49.2854 8.93433C48.4856 8.93433 47.8783 9.20093 47.4636 9.73413C47.0531 10.2673 46.8479 11.0037 46.8479 11.9431ZM63.8787 10.8069C63.8787 11.2343 63.8363 11.6405 63.7517 12.0256C63.6671 12.4107 63.5359 12.7514 63.3582 13.0476C63.1847 13.3438 62.9646 13.5766 62.698 13.7458C62.4356 13.9151 62.1246 13.9998 61.7649 13.9998C61.3756 13.9998 61.0582 13.8855 60.8127 13.657C60.5715 13.4242 60.4382 13.1132 60.4128 12.7239H60.3811C60.1991 13.1471 59.9368 13.4666 59.594 13.6824C59.2555 13.894 58.8725 13.9998 58.4451 13.9998C57.7976 13.9998 57.2983 13.7945 56.947 13.384C56.5958 12.9693 56.4202 12.3938 56.4202 11.6575C56.4202 11.0946 56.5344 10.5953 56.7629 10.1594C56.9957 9.72355 57.3173 9.38078 57.7278 9.1311C58.1425 8.88143 58.627 8.75659 59.1814 8.75659C59.5199 8.75659 59.8437 8.7841 60.1526 8.83911C60.4615 8.88989 60.7323 8.95549 60.9651 9.03589L60.8572 11.2068C60.8529 11.3634 60.8445 11.5242 60.8318 11.6892C60.8233 11.85 60.8191 12.0045 60.8191 12.1526C60.8191 12.6139 60.8995 12.9545 61.0603 13.1746C61.2211 13.3904 61.4666 13.4983 61.7966 13.4983C62.1394 13.4983 62.4229 13.3819 62.6472 13.1492C62.8715 12.9122 63.0387 12.5906 63.1487 12.1843C63.2629 11.7781 63.3201 11.3189 63.3201 10.8069C63.3201 9.96899 63.155 9.24325 62.825 8.62964C62.4991 8.01603 62.0294 7.54419 61.4158 7.21411C60.8022 6.8798 60.068 6.71265 59.2131 6.71265C58.4726 6.71265 57.804 6.8269 57.2073 7.05542C56.6106 7.28394 56.0986 7.61613 55.6711 8.052C55.2437 8.48364 54.9158 9.00838 54.6873 9.62622C54.4587 10.2398 54.3445 10.936 54.3445 11.7146C54.3445 12.6329 54.5095 13.4221 54.8396 14.0823C55.1697 14.7424 55.6479 15.2481 56.2742 15.5994C56.9005 15.9506 57.658 16.1262 58.5466 16.1262C59.0164 16.1262 59.4819 16.0754 59.9431 15.9739C60.4044 15.8723 60.8339 15.7411 61.2317 15.5803V16.1389C60.8593 16.2955 60.4488 16.4203 60.0002 16.5134C59.5517 16.6065 59.0671 16.6531 58.5466 16.6531C57.5564 16.6531 56.7037 16.4542 55.9885 16.0564C55.2776 15.6586 54.7296 15.0916 54.3445 14.3552C53.9636 13.6189 53.7732 12.7429 53.7732 11.7273C53.7732 10.8725 53.9023 10.1044 54.1604 9.4231C54.4185 8.73755 54.7867 8.15568 55.2649 7.67749C55.7431 7.19507 56.3144 6.8269 56.9788 6.573C57.6474 6.31486 58.3922 6.18579 59.2131 6.18579C60.1568 6.18579 60.9778 6.3741 61.676 6.75073C62.3743 7.12736 62.9159 7.66056 63.301 8.35034C63.6861 9.04012 63.8787 9.85897 63.8787 10.8069ZM57.0232 11.6638C57.0232 12.2647 57.148 12.7218 57.3977 13.0349C57.6516 13.3438 58.0219 13.4983 58.5085 13.4983C59.0629 13.4983 59.4861 13.31 59.7781 12.9333C60.0743 12.5525 60.2415 11.996 60.2795 11.2639L60.3684 9.44214C60.2118 9.38713 60.0341 9.34481 59.8352 9.31519C59.6363 9.28556 59.4205 9.27075 59.1877 9.27075C58.7307 9.27075 58.3393 9.37443 58.0134 9.58179C57.6918 9.78914 57.4464 10.0727 57.2771 10.4324C57.1078 10.7921 57.0232 11.2026 57.0232 11.6638ZM67.592 14.9773C67.7909 14.9773 67.975 14.9625 68.1443 14.9329C68.3178 14.9032 68.4701 14.8652 68.6013 14.8186V15.3518C68.4659 15.3984 68.3072 15.4386 68.1252 15.4724C67.9433 15.5105 67.7423 15.5295 67.5222 15.5295C67.1329 15.5295 66.8092 15.4576 66.551 15.3137C66.2929 15.1656 66.0982 14.9434 65.967 14.6472C65.8359 14.3468 65.7703 13.9659 65.7703 13.5046V9.03589H64.7419V8.65503L65.7639 8.45825L65.9861 6.83325H66.4114V8.50269H68.5632V9.03589H66.4114V13.4666C66.4114 13.9617 66.5024 14.3383 66.6843 14.5964C66.8705 14.8503 67.1731 14.9773 67.592 14.9773ZM72.6956 8.36938C73.2838 8.36938 73.7725 8.50692 74.1619 8.78198C74.5554 9.05705 74.8474 9.43368 75.0378 9.91187C75.2325 10.3901 75.3298 10.9381 75.3298 11.5559V12.0193H70.3469C70.3469 12.9672 70.5649 13.6951 71.0007 14.2029C71.4408 14.7107 72.0693 14.9646 72.886 14.9646C73.3134 14.9646 73.6837 14.9307 73.9968 14.863C74.3142 14.7911 74.6654 14.6705 75.0505 14.5012V15.0916C74.712 15.2439 74.3735 15.3539 74.0349 15.4216C73.6964 15.4936 73.307 15.5295 72.8669 15.5295C72.1687 15.5295 71.5826 15.3857 71.1086 15.0979C70.6389 14.8059 70.2834 14.3954 70.0422 13.8665C69.8053 13.3375 69.6868 12.7196 69.6868 12.0129C69.6868 11.3232 69.801 10.7032 70.0295 10.1531C70.2623 9.60295 70.6008 9.16919 71.0452 8.85181C71.4937 8.53019 72.0439 8.36938 72.6956 8.36938ZM72.6892 8.92163C72.0291 8.92163 71.4937 9.14168 71.0833 9.58179C70.677 10.0177 70.4379 10.6482 70.366 11.4734H74.6633C74.6633 10.9698 74.5914 10.5255 74.4475 10.1404C74.3036 9.75529 74.0857 9.45695 73.7937 9.24536C73.5059 9.02954 73.1378 8.92163 72.6892 8.92163ZM79.6399 8.38208C80.3974 8.38208 80.9644 8.57251 81.3411 8.95337C81.7177 9.33423 81.906 9.94149 81.906 10.7751V15.4026H81.4109L81.2966 14.1965H81.2585C81.1104 14.4547 80.9306 14.6853 80.719 14.8884C80.5074 15.0873 80.2472 15.2439 79.9382 15.3582C79.6335 15.4724 79.2611 15.5295 78.821 15.5295C78.3767 15.5295 77.9958 15.4555 77.6785 15.3074C77.3653 15.1593 77.122 14.9434 76.9485 14.6599C76.7792 14.3764 76.6946 14.0315 76.6946 13.6252C76.6946 12.9397 76.9781 12.4192 77.5452 12.0637C78.1122 11.704 78.9268 11.5009 79.989 11.4543L81.2712 11.3909V10.8894C81.2712 10.1827 81.1316 9.67912 80.8523 9.37866C80.573 9.07821 80.1604 8.92798 79.6145 8.92798C79.259 8.92798 78.9163 8.97453 78.5862 9.06763C78.2603 9.15649 77.9281 9.28556 77.5896 9.45483L77.3865 8.92163C77.7166 8.76506 78.0699 8.63599 78.4465 8.53442C78.8274 8.43286 79.2252 8.38208 79.6399 8.38208ZM81.2649 11.8923L80.0588 11.9431C79.1829 11.9854 78.5164 12.142 78.0593 12.4128C77.6023 12.6837 77.3738 13.0899 77.3738 13.6316C77.3738 14.0675 77.5092 14.4018 77.78 14.6345C78.0551 14.8673 78.436 14.9836 78.9226 14.9836C79.6801 14.9836 80.2577 14.7678 80.6555 14.3362C81.0575 13.9045 81.2607 13.3163 81.2649 12.5715V11.8923ZM84.7751 15.4026H84.1277V5.52563H84.7751V15.4026ZM92.4304 8.50269V15.4026H91.9099L91.8147 14.1584H91.7766C91.6581 14.4124 91.491 14.643 91.2751 14.8503C91.0593 15.0577 90.7948 15.2227 90.4817 15.3455C90.1685 15.4682 89.8046 15.5295 89.3899 15.5295C88.8609 15.5295 88.4166 15.4386 88.0569 15.2566C87.7014 15.0704 87.4327 14.7911 87.2507 14.4187C87.0688 14.0463 86.9778 13.5808 86.9778 13.0222V8.50269H87.6189V12.9587C87.6189 13.6485 87.7734 14.1563 88.0823 14.4822C88.3954 14.808 88.8525 14.9709 89.4534 14.9709C89.9612 14.9709 90.3865 14.8736 90.7292 14.679C91.0763 14.4843 91.3386 14.1902 91.5164 13.7966C91.6983 13.3988 91.7893 12.9037 91.7893 12.3113V8.50269H92.4304ZM96.4231 11.8542L94.0173 8.50269H94.7664L96.8103 11.4163L98.8542 8.50269H99.5969L97.2102 11.8542L99.7493 15.4026H98.9939L96.8103 12.3049L94.6394 15.4026H93.9031L96.4231 11.8542ZM103.837 8.36938C104.425 8.36938 104.914 8.50692 105.303 8.78198C105.697 9.05705 105.989 9.43368 106.179 9.91187C106.374 10.3901 106.471 10.9381 106.471 11.5559V12.0193H101.489C101.489 12.9672 101.706 13.6951 102.142 14.2029C102.582 14.7107 103.211 14.9646 104.028 14.9646C104.455 14.9646 104.825 14.9307 105.138 14.863C105.456 14.7911 105.807 14.6705 106.192 14.5012V15.0916C105.854 15.2439 105.515 15.3539 105.177 15.4216C104.838 15.4936 104.449 15.5295 104.009 15.5295C103.31 15.5295 102.724 15.3857 102.25 15.0979C101.781 14.8059 101.425 14.3954 101.184 13.8665C100.947 13.3375 100.828 12.7196 100.828 12.0129C100.828 11.3232 100.943 10.7032 101.171 10.1531C101.404 9.60295 101.742 9.16919 102.187 8.85181C102.635 8.53019 103.185 8.36938 103.837 8.36938ZM103.831 8.92163C103.171 8.92163 102.635 9.14168 102.225 9.58179C101.819 10.0177 101.58 10.6482 101.508 11.4734H105.805C105.805 10.9698 105.733 10.5255 105.589 10.1404C105.445 9.75529 105.227 9.45695 104.935 9.24536C104.648 9.02954 104.279 8.92163 103.831 8.92163ZM108.268 14.9519C108.268 14.7657 108.31 14.6239 108.395 14.5266C108.479 14.425 108.604 14.3743 108.769 14.3743C108.951 14.3743 109.085 14.425 109.169 14.5266C109.254 14.6239 109.296 14.7657 109.296 14.9519C109.296 15.1381 109.254 15.282 109.169 15.3835C109.085 15.4851 108.951 15.5359 108.769 15.5359C108.604 15.5359 108.479 15.4851 108.395 15.3835C108.31 15.282 108.268 15.1381 108.268 14.9519ZM114.235 15.5295C113.549 15.5295 112.969 15.3878 112.495 15.1042C112.026 14.8165 111.67 14.4081 111.429 13.8792C111.192 13.3459 111.073 12.7154 111.073 11.9875C111.073 11.2301 111.211 10.5826 111.486 10.0452C111.761 9.5035 112.148 9.08879 112.648 8.80103C113.147 8.51326 113.733 8.36938 114.406 8.36938C114.736 8.36938 115.043 8.39901 115.326 8.45825C115.61 8.5175 115.866 8.60002 116.094 8.70581L115.923 9.27075C115.686 9.16496 115.434 9.08455 115.168 9.02954C114.901 8.97453 114.645 8.94702 114.4 8.94702C113.833 8.94702 113.35 9.07186 112.952 9.32153C112.559 9.56698 112.256 9.91821 112.045 10.3752C111.837 10.828 111.734 11.3634 111.734 11.9812C111.734 12.561 111.823 13.0751 112 13.5237C112.178 13.968 112.451 14.3193 112.819 14.5774C113.187 14.8313 113.659 14.9583 114.235 14.9583C114.569 14.9583 114.886 14.9244 115.187 14.8567C115.491 14.789 115.769 14.7022 116.018 14.5964V15.1804C115.794 15.282 115.534 15.3645 115.238 15.428C114.946 15.4957 114.611 15.5295 114.235 15.5295ZM123.375 11.9431C123.375 12.4763 123.31 12.963 123.178 13.4031C123.047 13.8389 122.853 14.2156 122.594 14.533C122.336 14.8503 122.015 15.0958 121.63 15.2693C121.249 15.4428 120.804 15.5295 120.297 15.5295C119.814 15.5295 119.385 15.4449 119.008 15.2756C118.631 15.1021 118.312 14.8567 118.05 14.5393C117.791 14.2219 117.595 13.8453 117.459 13.4094C117.324 12.9693 117.256 12.4806 117.256 11.9431C117.256 11.2026 117.379 10.5657 117.624 10.0325C117.874 9.49504 118.229 9.08455 118.691 8.80103C119.156 8.51326 119.713 8.36938 120.36 8.36938C121.029 8.36938 121.585 8.52173 122.03 8.82642C122.478 9.12687 122.815 9.54582 123.039 10.0833C123.263 10.6207 123.375 11.2406 123.375 11.9431ZM117.916 11.9431C117.916 12.5483 118.003 13.0772 118.177 13.53C118.35 13.9828 118.612 14.3362 118.964 14.5901C119.319 14.844 119.768 14.9709 120.309 14.9709C120.864 14.9709 121.319 14.844 121.674 14.5901C122.03 14.3362 122.292 13.9807 122.461 13.5237C122.63 13.0667 122.715 12.5398 122.715 11.9431C122.715 11.3634 122.635 10.8471 122.474 10.3943C122.313 9.94149 122.059 9.58602 121.712 9.32788C121.365 9.06551 120.912 8.93433 120.354 8.93433C119.554 8.93433 118.947 9.20093 118.532 9.73413C118.122 10.2673 117.916 11.0037 117.916 11.9431ZM132.402 8.36938C133.066 8.36938 133.591 8.56193 133.976 8.94702C134.361 9.33211 134.553 9.93937 134.553 10.7688V15.4026H133.925V10.7942C133.925 10.1552 133.779 9.68547 133.487 9.38501C133.195 9.08455 132.81 8.93433 132.332 8.93433C131.676 8.93433 131.162 9.12687 130.789 9.51196C130.421 9.89282 130.237 10.4937 130.237 11.3147V15.4026H129.602V10.7942C129.602 10.3668 129.535 10.0177 129.399 9.74683C129.268 9.47176 129.084 9.26864 128.847 9.13745C128.61 9.00203 128.331 8.93433 128.009 8.93433C127.582 8.93433 127.211 9.02319 126.898 9.20093C126.585 9.37443 126.344 9.64526 126.175 10.0134C126.005 10.3774 125.921 10.8407 125.921 11.4036V15.4026H125.28V8.50269H125.8L125.895 9.63257H125.933C126.048 9.40828 126.2 9.20093 126.39 9.0105C126.581 8.82007 126.816 8.66561 127.095 8.54712C127.378 8.42863 127.711 8.36938 128.092 8.36938C128.587 8.36938 129.006 8.48153 129.348 8.70581C129.695 8.92586 129.937 9.25382 130.072 9.6897H130.116C130.303 9.27498 130.59 8.95125 130.98 8.71851C131.373 8.48576 131.847 8.36938 132.402 8.36938Z" fill="#151618"/>
</svg>
